<svg viewBox="0 0 500 500" xmlns="http://www.w3.org/2000/svg"><path d="M473.2,26.8C465,18.5 459,9.2 455.5,0L44.5,0C41,9.2 35,18.5 26.8,26.8C18.5,35 9.2,41 0,44.5L0,455.5C9.2,459 18.5,465 26.8,473.2C27.8,474.2 28.8,475.3 29.8,476.3C30.4,477 31,477.6 31.6,478.3C32.2,479 32.7,479.7 33.3,480.3C33.8,481 34.4,481.7 34.9,482.4L36.4,484.5C39.9,489.5 42.7,494.7 44.6,499.9L83.3,499.9L83.3,500L455.5,500C459,490.8 465,481.5 473.2,473.2C481.4,465 490.7,459 500,455.5L500,44.5C490.8,41 481.5,35 473.2,26.8M429.7,58.3C436.3,58.3 441.7,63.7 441.7,70.3C441.7,76.9 436.4,82.3 429.7,82.3C423.1,82.3 417.7,76.9 417.7,70.3C417.7,63.7 423.1,58.3 429.7,58.3M70.3,58.3C76.9,58.3 82.3,63.7 82.3,70.3C82.3,76.9 76.9,82.3 70.3,82.3C63.7,82.3 58.3,76.9 58.3,70.3C58.3,63.7 63.7,58.3 70.3,58.3M70.3,441.7C63.7,441.7 58.3,436.3 58.3,429.7C58.3,423.1 63.7,417.7 70.3,417.7C76.9,417.7 82.3,423.1 82.3,429.7C82.3,436.3 76.9,441.7 70.3,441.7M429.7,441.7C423.1,441.7 417.7,436.3 417.7,429.7C417.7,423.1 423.1,417.7 429.7,417.7C436.3,417.7 441.7,423.1 441.7,429.7C441.7,436.3 436.4,441.7 429.7,441.7" fill="#000000"></path></svg>